<?xml version="1.0" encoding="UTF-8"?>
<!DOCTYPE svg
PUBLIC "-//W3C//DTD SVG 1.1//EN"
       "http://www.w3.org/Graphics/SVG/1.1/DTD/svg11.dtd">
<svg xmlns:xlink="http://www.w3.org/1999/xlink" xmlns:ibooks="http://www.apple.com/2011/iBooks" width="0" height="0" xmlns="http://www.w3.org/2000/svg"><defs id="SVG_DEFS"><marker id="SVG_DEF_1" ibooks:markerId="simple arrow" markerUnits="strokeWidth" refX="3.000" refY="0.000" viewBox="0.000 0.000 6.000 6.000" preserveAspectRatio="none" markerWidth="6.000" markerHeight="6.000"><path d="M 0 0 L 3 6 L 6 0 Z"/></marker><marker id="SVG_DEF_2" ibooks:markerId="simple arrow" markerUnits="strokeWidth" refX="3.000" refY="0.000" viewBox="0.000 0.000 6.000 6.000" preserveAspectRatio="none" markerWidth="6.000" markerHeight="6.000"><path d="M 0 0 L 3 6 L 6 0 Z"/></marker><marker id="SVG_DEF_3" ibooks:markerId="simple arrow" markerUnits="strokeWidth" refX="3.000" refY="0.000" viewBox="0.000 0.000 6.000 6.000" preserveAspectRatio="none" markerWidth="6.000" markerHeight="6.000"><path d="M 0 0 L 3 6 L 6 0 Z"/></marker><marker id="SVG_DEF_4" ibooks:markerId="simple arrow" markerUnits="strokeWidth" refX="3.000" refY="0.000" viewBox="0.000 0.000 6.000 6.000" preserveAspectRatio="none" markerWidth="6.000" markerHeight="6.000"><path d="M 0 0 L 3 6 L 6 0 Z"/></marker><clipPath id="ClipPath-132"><path transform="matrix(1,0,0,1,0,0)" d="M 530.881531 198.826752 L 535.627136 195.627197 L 538.826721 190.881622 L 540 185.070312 L 540 14.929688 L 538.826782 9.118378 L 535.627197 4.372803 L 530.881592 1.173248 L 525.070312 0 L 14.92968 0 L 9.11837 1.173248 L 4.372795 4.372803 L 1.173241 9.118378 L 0 14.929657 L 0 185.070251 L 1.173248 190.881561 L 4.372803 195.627136 L 9.118378 198.826691 L 14.929688 199.999939 L 525.070312 200 Z"/></clipPath></defs></svg>
