<?xml version="1.0" encoding="UTF-8"?>
<!DOCTYPE svg
PUBLIC "-//W3C//DTD SVG 1.1//EN"
       "http://www.w3.org/Graphics/SVG/1.1/DTD/svg11.dtd">
<svg xmlns:xlink="http://www.w3.org/1999/xlink" xmlns:ibooks="http://www.apple.com/2011/iBooks" width="0" height="0" xmlns="http://www.w3.org/2000/svg"><defs id="SVG_DEFS"><clipPath id="ClipPath-328"><path transform="matrix(1,0,0,1,0,0)" d="M 1445.482178 1024.483276 L 1450 1013.578979 L 1450 15.42098 L 1445.482178 4.51671 L 1434.574585 0 L 15.425532 0 L 4.518086 4.51671 L 0 15.42098 L 0.000086 1013.578979 L 4.518086 1024.483276 L 15.425617 1029 L 1434.574585 1029 Z"/></clipPath><clipPath id="ClipPath-329"><path transform="matrix(1,0,0,1,0,0)" d="M 1450.466675 1028.46582 L 1455 1017.519104 L 1455 15.480927 L 1450.466675 4.534268 L 1439.521362 0 L 15.478724 0 L 4.533666 4.534268 L 0 15.480927 L 0.000086 1017.519104 L 4.533666 1028.46582 L 15.478809 1033 L 1439.521362 1033 Z"/></clipPath><clipPath id="ClipPath-330"><path transform="matrix(1,0,0,1,0.000122,0)" d="M 2047 0 L 0 0 L 0 1397 L 2047 1397 Z"/></clipPath><clipPath id="ClipPath-331"><path transform="matrix(1,0,0,1,0,0)" d="M 524 0 L 0 0 L 0 764 L 524 764 Z"/></clipPath><clipPath id="ClipPath-332"><path transform="matrix(1,0,0,1,0,0)" d="M 816 0 L 0 0 L 0 254 L 816 254 Z"/></clipPath><clipPath id="ClipPath-333"><path transform="matrix(1,0,0,1,0,0)" d="M 610 0 L 0 0 L 0 1108 L 610 1108 Z"/></clipPath><clipPath id="ClipPath-334"><path transform="matrix(1,0,0,1,0,0)" d="M 1116 0 L 0 0 L 0 762 L 1116 762 Z"/></clipPath><clipPath id="ClipPath-335"><path transform="matrix(1,0,0,1,0,0)" d="M 1116 0 L 0 0 L 0 763 L 1116 763 Z"/></clipPath></defs></svg>
